name Walk3.mot
datacolumns 19
datarows 15
range 2.45100000 2.46500000
endheader

                time	   L_ground_force_vx	   L_ground_force_vy	   L_ground_force_vz	   L_ground_force_px	   L_ground_force_py	   L_ground_force_pz	   R_ground_force_vx	   R_ground_force_vy	   R_ground_force_vz	   R_ground_force_px	   R_ground_force_py	   R_ground_force_pz	   L_ground_torque_x	   L_ground_torque_y	   L_ground_torque_z	   R_ground_torque_x	   R_ground_torque_y	   R_ground_torque_z	
          2.45100000	         35.10810418	       1001.83473178	         65.77316651	         -0.29109607	          0.00000000	         -0.05229273	         -0.03217314	          0.41312282	          0.04898373	          0.00021296	          0.00000000	          0.00010854	          0.00000000	         -1.80172399	          0.00000000	          0.00000000	          0.00196595	          0.00000000	
          2.45200000	         35.34275142	       1002.82088727	         65.89022381	         -0.29061751	          0.00000000	         -0.05226311	         -0.03448923	          0.43638209	          0.05147715	          0.00022136	          0.00000000	          0.00011264	          0.00000000	         -1.78635253	          0.00000000	          0.00000000	          0.00217802	          0.00000000	
          2.45300000	         35.58653610	       1003.83537774	         66.00932579	         -0.29014405	          0.00000000	         -0.05223224	         -0.03687812	          0.46000051	          0.05398967	          0.00022962	          0.00000000	          0.00011667	          0.00000000	         -1.77073643	          0.00000000	          0.00000000	          0.00240080	          0.00000000	
          2.45400000	         35.83978267	       1004.87758613	         66.13022434	         -0.28967578	          0.00000000	         -0.05220010	         -0.03933669	          0.48391391	          0.05651270	          0.00023771	          0.00000000	          0.00012058	          0.00000000	         -1.75489912	          0.00000000	          0.00000000	          0.00263437	          0.00000000	
          2.45500000	         36.10280363	       1005.94686202	         66.25264445	         -0.28921281	          0.00000000	         -0.05216666	         -0.04186126	          0.50805095	          0.05903678	          0.00024556	          0.00000000	          0.00012436	          0.00000000	         -1.73886607	          0.00000000	          0.00000000	          0.00287876	          0.00000000	
          2.45600000	         36.37589867	       1007.04252553	         66.37628455	         -0.28875524	          0.00000000	         -0.05213190	         -0.04444755	          0.53233272	          0.06155160	          0.00025313	          0.00000000	          0.00012797	          0.00000000	         -1.72266471	          0.00000000	          0.00000000	          0.00313398	          0.00000000	
          2.45700000	         36.65935415	       1008.16387180	         66.50081710	         -0.28830316	          0.00000000	         -0.05209581	         -0.04709060	          0.55667238	          0.06404591	          0.00026036	          0.00000000	          0.00013140	          0.00000000	         -1.70632438	          0.00000000	          0.00000000	          0.00339996	          0.00000000	
          2.45800000	         36.95344293	       1009.31017506	         66.62588953	         -0.28785664	          0.00000000	         -0.05205835	         -0.04978478	          0.58097480	          0.06650750	          0.00026718	          0.00000000	          0.00013460	          0.00000000	         -1.68987636	          0.00000000	          0.00000000	          0.00367663	          0.00000000	
          2.45900000	         37.25842468	       1010.48069155	         66.75112507	         -0.28741578	          0.00000000	         -0.05201951	         -0.05252370	          0.60513616	          0.06892316	          0.00027353	          0.00000000	          0.00013754	          0.00000000	         -1.67335390	          0.00000000	          0.00000000	          0.00396382	          0.00000000	
          2.46000000	         37.57454628	       1011.67466145	         66.87612356	         -0.28698064	          0.00000000	         -0.05197924	         -0.05530023	          0.62904355	          0.07127865	          0.00027935	          0.00000000	          0.00014018	          0.00000000	         -1.65679239	          0.00000000	          0.00000000	          0.00426132	          0.00000000	
          2.46100000	         37.90204206	       1012.89131078	         67.00046211	         -0.28655128	          0.00000000	         -0.05193751	         -0.05810638	          0.65257464	          0.07355864	          0.00028455	          0.00000000	          0.00014249	          0.00000000	         -1.64022947	          0.00000000	          0.00000000	          0.00456887	          0.00000000	
          2.46200000	         38.24113376	       1014.12985326	         67.12369557	         -0.28612776	          0.00000000	         -0.05189430	         -0.06093332	          0.67559728	          0.07574672	          0.00028905	          0.00000000	          0.00014443	          0.00000000	         -1.62370526	          0.00000000	          0.00000000	          0.00488613	          0.00000000	
          2.46300000	         38.59203020	       1015.38949232	         67.24535714	         -0.28571015	          0.00000000	         -0.05184956	         -0.06377130	          0.69796915	          0.07782530	          0.00029279	          0.00000000	          0.00014596	          0.00000000	         -1.60726257	          0.00000000	          0.00000000	          0.00521270	          0.00000000	
          2.46400000	         38.95492652	       1016.66942267	         67.36495881	         -0.28529848	          0.00000000	         -0.05180326	         -0.06660963	          0.71953738	          0.07977561	          0.00029566	          0.00000000	          0.00014702	          0.00000000	         -1.59094716	          0.00000000	          0.00000000	          0.00554808	          0.00000000	
          2.46500000	         39.33000338	       1017.96883123	         67.48199199	         -0.28489281	          0.00000000	         -0.05175536	         -0.06943662	          0.74013821	          0.08157770	          0.00029758	          0.00000000	          0.00014757	          0.00000000	         -1.57480792	          0.00000000	          0.00000000	          0.00589171	          0.00000000	
